<?xml version="1.0" standalone="no"?>
<!DOCTYPE svg PUBLIC "-//W3C//DTD SVG 20010904//EN"
 "http://www.w3.org/TR/2001/REC-SVG-20010904/DTD/svg10.dtd">
<svg version="1.0" xmlns="http://www.w3.org/2000/svg"
 width="509.000000pt" height="490.000000pt" viewBox="0 0 509.000000 490.000000"
 preserveAspectRatio="xMidYMid meet">

<g transform="translate(0.000000,490.000000) scale(0.100000,-0.100000)"
fill="#000000" stroke="none">
<path d="M2471 4675 c-54 -18 -79 -51 -156 -206 l-74 -147 82 -53 c45 -29 86
-56 91 -60 8 -7 -78 -159 -90 -159 -3 0 -38 23 -79 50 -41 28 -79 50 -84 50
-6 0 -20 -20 -31 -45 -18 -40 -19 -48 -6 -82 8 -21 24 -72 36 -113 12 -41 36
-119 52 -172 l31 -98 448 0 c458 0 472 1 440 35 -5 6 -113 217 -241 470 -128
253 -238 468 -245 478 -34 48 -114 72 -174 52z"/>
<path d="M1942 3735 c-23 -47 -42 -87 -42 -90 0 -3 32 -5 70 -5 61 0 70 2 70
18 0 22 -39 144 -49 154 -4 4 -26 -31 -49 -77z"/>
<path d="M2303 3455 c6 -35 10 -50 69 -243 29 -97 49 -147 61 -154 18 -9 92
-22 132 -22 11 0 67 1 125 2 103 2 105 3 121 30 9 15 49 83 89 152 86 148 140
245 140 254 0 3 -167 7 -371 8 l-371 3 5 -30z"/>
<path d="M1949 3209 l-144 -242 -3 227 c-1 124 -6 226 -10 226 -4 0 -25 -34
-47 -76 -21 -42 -53 -86 -70 -99 -31 -24 -204 -113 -900 -465 -231 -117 -435
-222 -452 -234 -79 -52 -82 -190 -4 -245 29 -21 213 -116 786 -406 558 -282
564 -286 589 -316 13 -15 45 -70 71 -121 26 -51 49 -94 50 -96 3 -4 109 173
126 211 7 15 16 27 21 27 4 0 8 4 8 8 0 8 33 66 231 410 11 17 27 47 38 65 21
37 111 190 152 260 16 27 29 56 29 66 0 9 -25 98 -55 197 -72 234 -105 342
-116 379 -5 17 -22 73 -38 125 -16 52 -46 150 -67 218 -21 67 -40 122 -44 122
-3 0 -71 -109 -151 -241z"/>
<path d="M3165 3094 c-109 -190 -188 -326 -295 -509 -10 -16 -41 -70 -70 -120
-29 -49 -61 -106 -72 -125 -11 -19 -29 -49 -40 -67 -18 -31 -18 -34 -3 -85 9
-29 20 -66 25 -83 15 -56 141 -460 146 -464 5 -5 325 157 341 173 6 6 91 169
188 361 108 215 188 361 206 378 21 19 40 27 65 27 71 0 86 -19 197 -240 57
-113 124 -246 150 -297 l46 -91 193 98 c361 183 473 242 492 259 64 57 61 166
-6 227 -12 12 -189 106 -393 209 -616 312 -939 477 -962 492 -13 8 -32 30 -44
49 -11 19 -24 34 -27 34 -4 0 -65 -102 -137 -226z"/>
<path d="M3630 2537 c-27 -14 -31 -21 -248 -453 -78 -154 -149 -288 -159 -296
-10 -9 -90 -53 -178 -99 -88 -45 -164 -85 -169 -90 -9 -8 3 -53 56 -216 l20
-63 129 0 129 0 30 58 c17 31 45 84 63 117 19 33 59 107 91 165 98 177 108
195 112 199 2 2 4 -152 4 -342 l0 -347 -249 0 c-138 0 -252 -4 -255 -8 -7 -11
29 -129 44 -147 6 -8 41 -28 78 -45 37 -17 79 -43 94 -57 l27 -26 12 27 c7 15
17 25 23 22 81 -33 156 -71 156 -77 0 -4 -13 -36 -29 -71 -61 -133 -68 -96 69
-365 67 -131 126 -243 132 -250 16 -19 82 -16 100 5 9 9 95 175 192 368 97
193 184 358 194 367 21 18 130 76 462 242 140 70 263 135 273 143 10 9 17 29
17 52 0 23 -7 43 -17 52 -10 8 -108 61 -218 116 -384 192 -500 253 -517 270
-9 9 -96 175 -193 367 -98 193 -188 360 -202 373 -28 25 -38 27 -73 9z"/>
<path d="M2561 1834 c-6 -38 -13 -96 -16 -129 -3 -33 -7 -72 -10 -86 -3 -20 2
-31 22 -45 14 -11 34 -27 44 -38 17 -18 20 -18 53 -2 31 14 34 19 26 39 -5 12
-28 85 -51 162 -23 77 -45 146 -49 154 -4 8 -12 -13 -19 -55z"/>
<path d="M2371 1728 c-120 -208 -132 -230 -128 -235 3 -3 41 13 84 35 70 35
79 43 89 78 14 47 26 214 15 214 -4 0 -31 -42 -60 -92z"/>
<path d="M2678 1502 c-10 -2 -18 -7 -18 -10 0 -11 41 -34 48 -28 11 11 -13 42
-30 38z"/>
<path d="M1925 1160 c-3 -5 41 -101 98 -212 58 -112 160 -313 227 -448 68
-135 134 -260 147 -278 32 -43 72 -62 130 -62 77 0 110 35 194 201 l69 139
-85 55 c-47 30 -85 57 -85 60 0 5 88 144 98 155 3 3 7 -1 9 -7 3 -7 8 -13 13
-13 5 0 36 -18 70 -41 34 -22 63 -39 65 -37 11 12 45 90 45 102 0 9 -6 35 -14
58 -8 24 -28 89 -45 145 l-31 101 -73 37 c-39 21 -76 41 -81 46 -14 13 -743
12 -751 -1z"/>
<path d="M2772 1158 c3 -7 13 -15 22 -16 12 -3 17 1 14 10 -3 7 -13 15 -22 16
-12 3 -17 -1 -14 -10z"/>
</g>
</svg>
